<svg width="31" height="30" viewBox="0 0 31 30" fill="none" xmlns="http://www.w3.org/2000/svg">
<g id="My images">
<path id="Vector" d="M3 21.875V8.4C3 6.86 3 6.09 3.30278 5.5015C3.56944 4.98313 3.99306 4.56375 4.51667 4.29975C5.11111 4 5.88889 4 7.44444 4H23.5556C25.1111 4 25.8889 4 26.4833 4.29975C27.006 4.5634 27.4309 4.98408 27.6972 5.5015C28 6.08863 28 6.85862 28 8.39587V21.6041C28 22.271 28 22.7935 27.975 23.2184M3 21.875C3 23.2335 3.01806 23.9457 3.30278 24.4971C3.56944 25.0155 3.99306 25.4362 4.51667 25.7002C5.10972 26 5.8875 26 7.44028 26H23.5611C25.1139 26 25.8903 26 26.4833 25.7002C27.0056 25.4362 27.4306 25.0155 27.6972 24.4971C27.8681 24.1644 27.9431 23.7739 27.975 23.2184M3 21.875L9.62222 14.2272L9.62361 14.2245C10.2111 13.5466 10.5056 13.207 10.8542 13.0833C11.1605 12.9759 11.4952 12.9783 11.8 13.0901C12.1472 13.218 12.4389 13.5618 13.0167 14.2493L16.7264 18.6561C17.2625 19.2941 17.5319 19.6131 17.8597 19.7424C18.1483 19.8548 18.4666 19.8683 18.7639 19.7809C19.1028 19.6819 19.4028 19.3862 19.9986 18.7964L20.6889 18.113C21.2958 17.5107 21.6 17.211 21.9444 17.112C22.2465 17.0254 22.5694 17.0433 22.8597 17.1629C23.1903 17.299 23.4583 17.6304 23.9958 18.2931L27.975 23.2184M27.975 23.2184L28 23.25M19.6667 12.25C19.2983 12.25 18.945 12.1051 18.6846 11.8473C18.4241 11.5894 18.2778 11.2397 18.2778 10.875C18.2778 10.5103 18.4241 10.1606 18.6846 9.90273C18.945 9.64487 19.2983 9.5 19.6667 9.5C20.035 9.5 20.3883 9.64487 20.6488 9.90273C20.9092 10.1606 21.0556 10.5103 21.0556 10.875C21.0556 11.2397 20.9092 11.5894 20.6488 11.8473C20.3883 12.1051 20.035 12.25 19.6667 12.25Z" stroke="black" stroke-opacity="0.9" stroke-width="2" stroke-linecap="round" stroke-linejoin="round"/>
</g>
</svg>
