<svg width="30" height="30" viewBox="0 0 30 30" fill="none" xmlns="http://www.w3.org/2000/svg">
<g id="Settings">
<path id="Vector" d="M15 18.75C17.0711 18.75 18.75 17.0711 18.75 15C18.75 12.9289 17.0711 11.25 15 11.25C12.9289 11.25 11.25 12.9289 11.25 15C11.25 17.0711 12.9289 18.75 15 18.75Z" stroke="black" stroke-width="2" stroke-linecap="round" stroke-linejoin="round"/>
<path id="Vector_2" d="M23.7455 18.5455C23.5881 18.9019 23.5412 19.2973 23.6107 19.6807C23.6802 20.0641 23.863 20.4178 24.1355 20.6964L24.2064 20.7673C24.4261 20.9868 24.6005 21.2475 24.7194 21.5344C24.8384 21.8214 24.8996 22.1289 24.8996 22.4395C24.8996 22.7502 24.8384 23.0577 24.7194 23.3447C24.6005 23.6316 24.4261 23.8923 24.2064 24.1118C23.9868 24.3316 23.7262 24.5059 23.4392 24.6249C23.1523 24.7438 22.8447 24.805 22.5341 24.805C22.2235 24.805 21.9159 24.7438 21.629 24.6249C21.342 24.5059 21.0813 24.3316 20.8618 24.1118L20.7909 24.0409C20.5124 23.7685 20.1586 23.5857 19.7752 23.5162C19.3919 23.4467 18.9965 23.4936 18.64 23.6509C18.2905 23.8007 17.9923 24.0495 17.7824 24.3665C17.5724 24.6836 17.4597 25.0552 17.4582 25.4355V25.6364C17.4582 26.2632 17.2092 26.8644 16.7659 27.3077C16.3226 27.751 15.7214 28 15.0945 28C14.4677 28 13.8665 27.751 13.4232 27.3077C12.9799 26.8644 12.7309 26.2632 12.7309 25.6364V25.53C12.7218 25.1388 12.5951 24.7594 12.3675 24.4412C12.1399 24.1229 11.8218 23.8805 11.4545 23.7455C11.0981 23.5881 10.7027 23.5412 10.3193 23.6107C9.93593 23.6802 9.58217 23.863 9.30364 24.1355L9.23273 24.2064C9.01321 24.4261 8.75253 24.6005 8.46559 24.7194C8.17864 24.8384 7.87107 24.8996 7.56045 24.8996C7.24984 24.8996 6.94226 24.8384 6.65532 24.7194C6.36838 24.6005 6.1077 24.4261 5.88818 24.2064C5.66842 23.9868 5.49408 23.7262 5.37513 23.4392C5.25618 23.1523 5.19496 22.8447 5.19496 22.5341C5.19496 22.2235 5.25618 21.9159 5.37513 21.629C5.49408 21.342 5.66842 21.0813 5.88818 20.8618L5.95909 20.7909C6.23154 20.5124 6.41431 20.1586 6.48382 19.7752C6.55334 19.3919 6.50641 18.9965 6.34909 18.64C6.19928 18.2905 5.95053 17.9923 5.63346 17.7824C5.31639 17.5724 4.94484 17.4597 4.56455 17.4582H4.36364C3.73676 17.4582 3.13556 17.2092 2.69229 16.7659C2.24903 16.3226 2 15.7214 2 15.0945C2 14.4677 2.24903 13.8665 2.69229 13.4232C3.13556 12.9799 3.73676 12.7309 4.36364 12.7309H4.47C4.86118 12.7218 5.24055 12.5951 5.55881 12.3675C5.87706 12.1399 6.11948 11.8218 6.25455 11.4545C6.41186 11.0981 6.45879 10.7027 6.38928 10.3193C6.31976 9.93593 6.137 9.58217 5.86455 9.30364L5.79364 9.23273C5.57387 9.01321 5.39953 8.75253 5.28059 8.46559C5.16164 8.17864 5.10041 7.87107 5.10041 7.56045C5.10041 7.24984 5.16164 6.94226 5.28059 6.65532C5.39953 6.36838 5.57387 6.1077 5.79364 5.88818C6.01315 5.66842 6.27384 5.49408 6.56078 5.37513C6.84772 5.25618 7.15529 5.19496 7.46591 5.19496C7.77653 5.19496 8.0841 5.25618 8.37104 5.37513C8.65798 5.49408 8.91866 5.66842 9.13818 5.88818L9.20909 5.95909C9.48762 6.23154 9.84138 6.41431 10.2248 6.48382C10.6081 6.55334 11.0035 6.50641 11.36 6.34909H11.4545C11.8041 6.19928 12.1022 5.95053 12.3122 5.63346C12.5222 5.31639 12.6348 4.94484 12.6364 4.56455V4.36364C12.6364 3.73676 12.8854 3.13556 13.3287 2.69229C13.7719 2.24903 14.3731 2 15 2C15.6269 2 16.2281 2.24903 16.6713 2.69229C17.1146 3.13556 17.3636 3.73676 17.3636 4.36364V4.47C17.3652 4.85029 17.4778 5.22184 17.6878 5.53891C17.8978 5.85598 18.1959 6.10473 18.5455 6.25455C18.9019 6.41186 19.2973 6.45879 19.6807 6.38928C20.0641 6.31976 20.4178 6.137 20.6964 5.86455L20.7673 5.79364C20.9868 5.57387 21.2475 5.39953 21.5344 5.28059C21.8214 5.16164 22.1289 5.10041 22.4395 5.10041C22.7502 5.10041 23.0577 5.16164 23.3447 5.28059C23.6316 5.39953 23.8923 5.57387 24.1118 5.79364C24.3316 6.01315 24.5059 6.27384 24.6249 6.56078C24.7438 6.84772 24.805 7.15529 24.805 7.46591C24.805 7.77653 24.7438 8.0841 24.6249 8.37104C24.5059 8.65798 24.3316 8.91866 24.1118 9.13818L24.0409 9.20909C23.7685 9.48762 23.5857 9.84138 23.5162 10.2248C23.4467 10.6081 23.4936 11.0035 23.6509 11.36V11.4545C23.8007 11.8041 24.0495 12.1022 24.3665 12.3122C24.6836 12.5222 25.0552 12.6348 25.4355 12.6364H25.6364C26.2632 12.6364 26.8644 12.8854 27.3077 13.3287C27.751 13.7719 28 14.3731 28 15C28 15.6269 27.751 16.2281 27.3077 16.6713C26.8644 17.1146 26.2632 17.3636 25.6364 17.3636H25.53C25.1497 17.3652 24.7782 17.4778 24.4611 17.6878C24.144 17.8978 23.8953 18.1959 23.7455 18.5455Z" stroke="black" stroke-width="2" stroke-linecap="round" stroke-linejoin="round"/>
</g>
</svg>
